<svg class="logo" version="1.0" xmlns="http://www.w3.org/2000/svg" viewBox="0 0 47 15"
 preserveAspectRatio="xMidYMid meet">
  <g id="logo" transform="translate(1,12) scale(0.003,-0.003)"
  fill="#222222" stroke="none">
    <path d="M3503 3080 c-429 -44 -740 -343 -840 -810 -22 -105 -25 -411 -5 -505
    81 -371 258 -613 546 -745 105 -48 176 -67 312 -81 315 -32 599 64 800 273
    133 137 217 301 266 520 19 87 23 131 23 278 -1 191 -13 271 -66 427 -109 325
    -371 563 -690 626 -98 20 -245 27 -346 17z m329 -253 c317 -103 498 -403 498
    -824 0 -421 -204 -738 -525 -818 -91 -23 -265 -23 -359 -1 -204 48 -385 220
    -464 439 -44 122 -63 233 -63 378 -1 330 110 589 314 733 83 58 132 79 262
    110 43 10 291 -3 337 -17z"/>
    <path d="M11243 3080 c-429 -44 -740 -343 -840 -810 -22 -105 -25 -411 -5
    -505 81 -371 258 -613 546 -745 105 -48 176 -67 312 -81 315 -32 599 64 800
    273 133 137 217 301 266 520 19 87 23 131 23 278 -1 191 -13 271 -66 427 -109
    325 -371 563 -690 626 -98 20 -245 27 -346 17z m329 -253 c317 -103 498 -403
    498 -824 0 -421 -204 -738 -525 -818 -91 -23 -265 -23 -359 -1 -204 48 -385
    220 -464 439 -44 122 -63 233 -63 378 -1 330 110 589 314 733 83 58 132 79
    262 110 43 10 291 -3 337 -17z"/>
    <path d="M13245 3079 c-382 -52 -615 -274 -615 -585 0 -249 123 -395 415 -492
    50 -16 173 -49 275 -72 370 -84 475 -123 552 -209 52 -57 68 -104 68 -193 0
    -104 -22 -160 -89 -227 -94 -94 -221 -134 -426 -133 -254 1 -442 89 -538 252
    -30 52 -57 147 -57 202 l0 38 -130 0 -130 0 0 -57 c1 -128 49 -266 133 -379
    183 -247 614 -354 1016 -253 199 50 370 177 444 329 42 85 57 152 57 251 0
    148 -45 261 -143 356 -128 124 -259 176 -677 269 -165 36 -311 82 -359 112
    -95 58 -131 122 -131 229 0 155 82 256 249 310 65 21 266 29 343 13 82 -16
    176 -59 233 -107 56 -46 110 -149 127 -240 l12 -63 129 0 130 0 -6 78 c-24
    293 -231 505 -550 561 -88 16 -254 21 -332 10z"/>
    <path d="M890 2011 l0 -1031 140 0 140 0 0 419 0 420 398 3 c335 4 406 7 455
    21 220 64 354 216 393 447 51 300 -60 572 -277 677 -133 65 -140 66 -721 70
    l-528 4 0 -1030z m972 778 c191 -41 288 -162 288 -359 0 -120 -41 -223 -111
    -284 -93 -79 -198 -96 -596 -96 l-273 0 0 375 0 375 320 0 c199 0 339 -4 372
    -11z"/>
    <path d="M4724 3027 c-2 -7 -3 -60 -2 -118 l3 -104 343 -3 342 -2 0 -910 0
    -910 140 0 140 0 0 910 0 910 340 0 340 0 0 120 0 120 -820 0 c-670 0 -822 -2
    -826 -13z"/>
    <path d="M6765 2043 c-214 -549 -394 -1013 -402 -1031 l-13 -32 142 0 143 0
    115 310 114 310 434 -2 434 -3 112 -307 111 -308 153 0 c85 0 152 4 150 9 -1
    4 -183 468 -402 1030 l-400 1021 -151 0 -152 0 -388 -997z m708 266 c92 -260
    166 -473 164 -475 -2 -3 -157 -3 -344 -2 l-340 3 171 472 c94 260 173 473 176
    473 3 0 81 -212 173 -471z"/>
    <path d="M8460 2010 l0 -1030 408 0 c529 0 632 13 817 105 249 123 389 331
    451 666 22 120 25 451 6 554 -65 338 -216 534 -500 652 -162 67 -314 83 -803
    83 l-379 0 0 -1030z m937 775 c267 -50 427 -240 473 -560 13 -93 13 -304 -1
    -402 -13 -95 -59 -238 -101 -313 -49 -86 -150 -179 -240 -223 -131 -63 -169
    -69 -495 -74 l-293 -5 0 796 0 796 289 0 c214 0 310 -4 368 -15z"/>
  </g>
</svg>
